<?xml version="1.0" standalone="no"?>
<!DOCTYPE svg PUBLIC "-//W3C//DTD SVG 20010904//EN"
 "http://www.w3.org/TR/2001/REC-SVG-20010904/DTD/svg10.dtd">
<svg version="1.0" xmlns="http://www.w3.org/2000/svg"
 width="610.000000pt" height="610.000000pt" viewBox="0 0 610.000000 610.000000"
 preserveAspectRatio="xMidYMid meet">
<metadata>
Created by potrace 1.14, written by Peter Selinger 2001-2017
</metadata>
<g transform="translate(0.000000,610.000000) scale(0.100000,-0.100000)"
fill="#000000" stroke="none">
<path d="M3015 5941 c-6 -5 -73 -12 -150 -14 -161 -6 -221 -12 -323 -33 -41
-7 -78 -12 -82 -9 -5 3 -30 -2 -55 -11 -26 -8 -57 -17 -69 -20 -11 -2 -37 -7
-56 -10 -19 -4 -66 -18 -104 -31 -54 -18 -72 -20 -78 -11 -6 10 -11 9 -19 -5
-6 -9 -14 -15 -20 -12 -5 4 -9 2 -9 -4 0 -6 -19 -16 -42 -22 -24 -7 -47 -16
-53 -21 -5 -4 -17 -8 -27 -8 -10 0 -18 -4 -18 -9 0 -5 -17 -15 -37 -21 -42
-13 -179 -74 -203 -90 -24 -17 -84 -43 -97 -43 -7 0 -13 -4 -13 -9 0 -5 -16
-16 -35 -25 -19 -9 -35 -21 -35 -25 0 -5 -8 -8 -17 -7 -31 3 -44 -1 -38 -10 3
-5 -5 -13 -17 -17 -13 -4 -29 -15 -36 -25 -7 -11 -22 -19 -33 -19 -11 0 -18
-4 -15 -9 3 -5 0 -11 -7 -14 -6 -2 -40 -25 -73 -51 -34 -25 -67 -46 -73 -46
-7 0 -9 -5 -6 -10 3 -6 -2 -13 -12 -17 -10 -4 -40 -30 -68 -57 -28 -28 -70
-67 -94 -86 -25 -19 -49 -41 -55 -49 -6 -8 -33 -37 -61 -64 -27 -27 -50 -54
-50 -58 0 -5 -17 -24 -37 -43 -20 -19 -35 -36 -33 -38 3 -2 -11 -21 -30 -41
-19 -20 -35 -41 -35 -47 0 -5 -9 -14 -20 -20 -11 -6 -20 -17 -20 -25 0 -8 -7
-18 -16 -23 -9 -5 -15 -13 -15 -18 2 -23 -12 -45 -25 -40 -9 3 -12 1 -9 -5 4
-6 0 -18 -7 -27 -8 -9 -32 -48 -53 -87 -21 -38 -44 -77 -51 -85 -7 -8 -12 -19
-12 -23 1 -19 -25 -66 -33 -61 -5 3 -10 2 -10 -3 -1 -4 -3 -17 -4 -28 -5 -33
-76 -189 -92 -202 -8 -6 -12 -16 -9 -21 3 -6 -1 -26 -9 -46 -8 -20 -15 -39
-14 -42 0 -4 -4 -10 -10 -13 -5 -4 -13 -22 -16 -41 -10 -58 -27 -105 -42 -114
-11 -5 -13 -18 -9 -40 4 -20 1 -44 -8 -62 -8 -16 -16 -49 -17 -73 -2 -24 -8
-45 -14 -47 -6 -3 -11 -32 -12 -65 -1 -33 -7 -66 -12 -73 -6 -8 -10 -24 -7
-37 2 -13 0 -29 -5 -35 -5 -6 -9 -61 -10 -123 -1 -61 -6 -114 -11 -117 -5 -3
-6 -28 -2 -55 5 -35 3 -49 -5 -49 -7 0 -9 -5 -4 -12 6 -11 12 -177 13 -350 0
-46 27 -178 40 -193 5 -6 8 -24 8 -41 -1 -16 4 -39 10 -50 6 -12 11 -29 11
-40 1 -19 7 -64 11 -74 1 -3 2 -9 1 -14 -1 -4 3 -13 8 -20 5 -6 9 -22 10 -36
1 -48 4 -65 14 -72 6 -3 12 -19 14 -34 2 -15 9 -36 14 -46 5 -10 7 -23 4 -28
-3 -6 -1 -10 5 -10 13 0 72 -128 64 -141 -3 -5 -1 -9 4 -9 10 0 27 -48 23 -64
-1 -4 3 -14 10 -22 6 -8 9 -21 5 -29 -3 -9 -2 -13 4 -10 9 6 43 -38 46 -61 1
-8 16 -36 33 -64 17 -28 31 -55 31 -60 0 -6 5 -10 11 -10 6 0 8 -7 5 -16 -3
-8 -2 -13 3 -10 9 6 26 -22 22 -38 -1 -5 7 -15 19 -23 11 -8 20 -22 20 -32 0
-10 7 -24 15 -31 9 -7 14 -19 11 -26 -3 -8 0 -11 9 -8 8 4 24 -16 45 -55 18
-34 37 -61 43 -61 6 0 8 -3 5 -6 -3 -3 5 -16 19 -30 13 -13 22 -28 18 -33 -3
-5 -1 -12 5 -16 6 -4 8 -10 5 -15 -3 -4 4 -6 14 -3 13 3 21 -2 26 -16 3 -11
19 -32 35 -47 15 -15 26 -33 23 -41 -4 -9 0 -11 11 -7 10 4 16 1 16 -9 0 -8
11 -23 25 -33 14 -10 25 -23 25 -28 0 -5 20 -28 45 -51 24 -23 42 -45 39 -48
-3 -3 3 -10 14 -16 11 -6 22 -7 26 -4 10 10 45 -28 39 -43 -4 -10 5 -19 26
-27 19 -7 29 -17 26 -25 -2 -7 1 -12 8 -11 26 5 65 -14 75 -36 6 -13 35 -35
67 -50 31 -15 60 -36 65 -46 8 -15 27 -25 60 -34 22 -6 40 -19 40 -29 0 -7 18
-19 40 -26 23 -7 42 -21 46 -32 4 -13 11 -17 22 -13 9 3 33 -7 57 -24 24 -17
45 -28 48 -25 3 4 16 -6 29 -20 14 -16 36 -28 57 -30 18 -2 36 -8 40 -13 10
-14 89 -46 99 -39 11 6 65 -18 57 -26 -6 -6 167 -58 194 -58 11 0 23 -5 26
-10 4 -6 10 -8 15 -5 10 6 125 -27 158 -44 10 -5 41 -12 68 -15 96 -11 140
-17 189 -26 28 -5 63 -12 78 -14 115 -19 375 -27 380 -11 3 7 9 6 18 -1 26
-19 350 4 373 27 6 5 25 9 44 9 18 0 42 4 52 10 10 5 43 12 72 14 55 4 92 11
106 20 4 2 28 7 52 11 25 4 56 13 70 21 22 13 108 41 236 78 23 6 48 17 57 24
8 7 24 15 35 17 12 2 30 8 41 14 11 6 29 11 40 11 12 0 30 9 41 20 11 11 28
20 39 20 10 0 24 7 31 15 7 8 19 15 27 15 7 0 16 7 19 15 4 8 14 15 24 15 10
0 23 7 30 15 6 8 22 17 33 21 12 4 38 20 58 35 20 16 42 29 48 29 6 0 11 5 11
10 0 6 5 10 11 10 10 0 26 11 108 80 13 11 32 20 42 20 10 0 24 10 30 22 21
39 116 111 132 101 6 -3 7 -1 3 5 -3 6 5 19 19 29 14 10 69 62 123 117 53 54
123 124 155 156 31 31 57 61 57 66 0 6 13 25 30 44 16 19 29 40 30 46 0 5 14
20 30 32 17 13 30 27 30 32 0 15 61 101 76 107 8 3 11 9 8 14 -5 8 65 147 91
179 27 34 136 283 175 400 23 69 46 130 51 137 6 6 9 17 8 25 -1 7 3 26 9 41
7 16 12 36 12 46 0 9 7 44 16 76 9 33 18 92 21 130 2 39 7 90 11 115 5 25 10
76 11 114 1 37 6 88 10 114 5 36 6 348 0 432 0 8 1 29 3 45 3 17 -2 43 -9 58
-8 15 -11 32 -8 37 3 5 1 18 -4 28 -6 11 -13 34 -16 53 -16 84 -22 129 -20
153 0 14 -3 26 -8 26 -4 0 -7 6 -6 13 1 6 -3 26 -10 42 -7 17 -11 45 -9 63 2
17 1 32 -4 32 -4 0 -12 8 -17 18 -13 25 -21 82 -10 82 5 0 9 7 9 15 0 8 -5 14
-10 12 -6 -1 -20 13 -31 31 -15 23 -17 32 -7 32 9 0 9 3 2 8 -17 11 -34 48
-34 75 0 13 -9 36 -20 50 -11 14 -20 30 -20 36 0 14 -22 54 -35 63 -5 4 -6 8
-2 8 4 0 -4 17 -18 37 -14 21 -25 44 -25 51 0 7 -9 25 -21 41 -11 15 -21 35
-23 44 -1 9 -12 27 -24 40 -12 12 -23 32 -25 44 -2 12 -15 36 -30 54 -15 18
-26 37 -24 42 1 5 -10 22 -25 38 -15 15 -28 34 -28 42 0 8 -11 22 -24 31 -19
12 -24 22 -20 48 2 18 1 27 -2 21 -4 -10 -13 -9 -36 3 -22 12 -29 21 -25 36 4
13 1 18 -7 15 -13 -5 -49 27 -40 35 2 3 -6 10 -19 17 -12 7 -35 29 -50 49 -16
20 -53 63 -83 95 -33 35 -53 64 -50 73 6 16 -10 19 -19 3 -5 -7 -13 -4 -25 8
-10 10 -35 32 -54 48 -20 17 -59 51 -88 78 -28 26 -57 47 -62 47 -6 0 -28 16
-48 36 -21 19 -38 32 -38 28 0 -4 -10 2 -22 13 -13 12 -43 30 -68 42 -25 12
-60 35 -77 52 -18 16 -33 27 -33 24 0 -3 -13 1 -30 10 -16 9 -30 20 -30 25 0
5 -6 7 -14 4 -8 -3 -23 3 -34 13 -10 10 -25 19 -33 21 -8 2 -55 23 -105 48
-50 24 -96 44 -102 44 -6 0 -35 11 -64 24 -29 13 -80 32 -113 41 -33 10 -87
26 -121 37 -33 10 -71 21 -85 23 -13 3 -39 8 -56 11 -18 3 -31 9 -29 13 2 3
-21 7 -52 9 -31 2 -59 6 -62 10 -3 4 -21 8 -40 9 -19 1 -53 4 -75 6 -22 3 -87
10 -145 16 -58 7 -127 15 -155 20 -52 9 -59 9 -88 -4 -11 -5 -24 -2 -36 9 -20
19 -24 19 -36 7z"/>
<path d="M1586 5641 c-17 -6 -17 -8 -4 -14 10 -3 19 0 22 9 3 8 4 14 3 13 -1
0 -11 -4 -21 -8z"/>
<path d="M940 5160 c-13 -8 -12 -10 3 -10 9 0 17 5 17 10 0 12 -1 12 -20 0z"/>
<path d="M5200 5099 c0 -5 5 -7 10 -4 6 3 10 8 10 11 0 2 -4 4 -10 4 -5 0 -10
-5 -10 -11z"/>
<path d="M480 4551 c-6 -12 -7 -21 -1 -21 10 0 24 30 17 37 -2 3 -9 -5 -16
-16z"/>
<path d="M5595 4511 c-3 -5 -1 -12 5 -16 5 -3 10 1 10 9 0 18 -6 21 -15 7z"/>
<path d="M346 4301 c-4 -5 -2 -12 3 -15 5 -4 12 -2 15 3 4 5 2 12 -3 15 -5 4
-12 2 -15 -3z"/>
<path d="M5980 3190 c-6 -17 -6 -52 1 -56 12 -7 16 9 8 36 -4 14 -8 23 -9 20z"/>
<path d="M295 1920 c3 -5 8 -10 11 -10 2 0 4 5 4 10 0 6 -5 10 -11 10 -5 0 -7
-4 -4 -10z"/>
<path d="M5599 1683 c0 -5 -2 -16 -4 -25 -2 -10 1 -18 6 -18 5 0 9 11 9 25 0
22 -9 37 -11 18z"/>
<path d="M2208 243 c7 -3 16 -2 19 1 4 3 -2 6 -13 5 -11 0 -14 -3 -6 -6z"/>
</g>
</svg>
